Coordinates
version=1
nRows=13
nColumns=38
inDegrees=no

Units are S.I. units (second, meters, Newtons, ...)
If the header above contains a line with 'inDegrees', this indicates whether rotational values are in degrees (yes) or radians (no).

endheader
time	pelvis_tilt	pelvis_list	pelvis_rotation	pelvis_tx	pelvis_ty	pelvis_tz	hip_flexion_r	hip_adduction_r	hip_rotation_r	knee_angle_r	ankle_angle_r	subtalar_angle_r	mtp_angle_r	hip_flexion_l	hip_adduction_l	hip_rotation_l	knee_angle_l	ankle_angle_l	subtalar_angle_l	mtp_angle_l	lumbar_extension	lumbar_bending	lumbar_rotation	arm_flex_r	arm_add_r	arm_rot_r	elbow_flex_r	pro_sup_r	wrist_flex_r	wrist_dev_r	arm_flex_l	arm_add_l	arm_rot_l	elbow_flex_l	pro_sup_l	wrist_flex_l	wrist_dev_l
0.55	-0.462963	1.4948	-0.996543	0.705492	0.448991	1.06087	0.443864	-0.00743389	0.0244886	0.624512	-0.20155	0	0	-0.242304	-0.0728898	-0.267918	0.354978	-0.146453	0	0	-0.366592	0.0754932	0.14625	-0.0878744	-0.736762	0.444489	1.1056	1.02829	0	0	0.0776722	-0.39908	0.57172	1.03856	0.974747	0	0
0.56	-0.504938	1.5006	-0.951076	0.706978	0.437691	1.05835	0.452325	-0.0074993	0.0187072	0.598404	-0.179866	0	0	-0.243284	-0.0749474	-0.26915	0.362145	-0.142694	0	0	-0.358452	0.0763314	0.143129	-0.0924563	-0.734548	0.441511	1.10622	1.02996	0	0	0.0744788	-0.39993	0.569673	1.03935	0.976416	0	0
0.57	-0.546418	1.50525	-0.906169	0.708328	0.426196	1.05589	0.458598	-0.00698342	0.0139379	0.574141	-0.160502	0	0	-0.245636	-0.0773704	-0.271089	0.36938	-0.139304	0	0	-0.351179	0.0773244	0.140144	-0.0971839	-0.732237	0.438504	1.10706	1.03061	0	0	0.0711486	-0.401113	0.567845	1.04021	0.978101	0	0
0.58	-0.589287	1.50896	-0.860052	0.709554	0.414547	1.05348	0.462868	-0.005788	0.0101763	0.551923	-0.145052	0	0	-0.249061	-0.0801882	-0.273078	0.376428	-0.136555	0	0	-0.344528	0.0785595	0.137416	-0.102018	-0.730161	0.436016	1.10808	1.03118	0	0	0.0673619	-0.402237	0.56563	1.04092	0.980191	0	0
0.59	-0.63253	1.51195	-0.813436	0.710741	0.40271	1.05111	0.465918	-0.0040965	0.00769303	0.534318	-0.132406	0	0	-0.253271	-0.083319	-0.274918	0.383375	-0.134612	0	0	-0.338012	0.080195	0.134498	-0.106982	-0.728351	0.434139	1.10921	1.03213	0	0	0.0631432	-0.403315	0.563294	1.04131	0.982812	0	0
0.6	-0.665948	1.51365	-0.776344	0.711898	0.390652	1.04882	0.46926	-0.00186613	0.007515	0.527798	-0.120961	0	0	-0.259252	-0.0870265	-0.276379	0.390388	-0.133358	0	0	-0.332207	0.0823085	0.131396	-0.112611	-0.726896	0.432329	1.11105	1.03312	0	0	0.0586875	-0.404723	0.561276	1.04213	0.985013	0	0
0.61	-0.68924	1.51417	-0.749161	0.713013	0.378355	1.04659	0.472587	0.00125071	0.0109206	0.531036	-0.111569	0	0	-0.2665	-0.0913539	-0.277403	0.397779	-0.132689	0	0	-0.326838	0.0849544	0.128236	-0.118976	-0.725704	0.430666	1.11334	1.03431	0	0	0.0537053	-0.40618	0.558977	1.04339	0.986162	0	0
0.62	-0.704501	1.51382	-0.730287	0.713997	0.365874	1.04439	0.475655	0.00563468	0.0188705	0.54241	-0.105786	0	0	-0.274426	-0.0963267	-0.278464	0.406021	-0.132637	0	0	-0.322048	0.0879284	0.125123	-0.125445	-0.724621	0.428916	1.11606	1.03539	0	0	0.0481755	-0.40812	0.556527	1.04545	0.987193	0	0
0.63	-0.711694	1.51297	-0.719574	0.714895	0.353259	1.04224	0.478531	0.0110379	0.0306663	0.562198	-0.105423	0	0	-0.282701	-0.101867	-0.279653	0.415344	-0.133446	0	0	-0.317762	0.0909896	0.121922	-0.132039	-0.723585	0.426937	1.11924	1.03608	0	0	0.0423151	-0.410387	0.553993	1.04792	0.988537	0	0
0.64	-0.710823	1.51167	-0.716753	0.715751	0.340366	1.0401	0.48014	0.0170984	0.0443389	0.587042	-0.108146	0	0	-0.291268	-0.107968	-0.281116	0.425665	-0.135235	0	0	-0.31338	0.0941757	0.11829	-0.138991	-0.722352	0.425158	1.1225	1.03669	0	0	0.0355683	-0.412677	0.551011	1.05028	0.989567	0	0
0.65	-0.694372	1.50937	-0.729107	0.716611	0.327198	1.03811	0.478082	0.023154	0.0563806	0.610054	-0.111391	0	0	-0.30084	-0.114685	-0.282537	0.436909	-0.137963	0	0	-0.309619	0.097571	0.114266	-0.146361	-0.720946	0.423549	1.12579	1.03701	0	0	0.028325	-0.415193	0.548395	1.05235	0.990278	0	0
0.66	-0.666592	1.50611	-0.752699	0.717466	0.313772	1.03629	0.4743	0.0288771	0.0657892	0.631604	-0.114517	0	0	-0.311108	-0.122	-0.28405	0.44948	-0.142131	0	0	-0.306589	0.101211	0.109994	-0.154216	-0.719562	0.421818	1.12945	1.0364	0	0	0.0205194	-0.417793	0.545694	1.05438	0.99112	0	0
0.67	-0.636103	1.50167	-0.778983	0.718263	0.300165	1.03473	0.470564	0.0345867	0.0726363	0.652208	-0.122577	0	0	-0.321416	-0.130448	-0.285636	0.464073	-0.148115	0	0	-0.304522	0.105416	0.105848	-0.162203	-0.718347	0.420369	1.13323	1.03547	0	0	0.0127582	-0.42012	0.542832	1.05615	0.991582	0	0
